<svg
        version="1.1"
        id="Capa_1"
        xmlns="http://www.w3.org/2000/svg"
        xmlns:xlink="http://www.w3.org/1999/xlink"
        x="0px"
        y="0px"
        viewBox="0 0 484.1 484.1"
        style="enable-background:new 0 0 484.1 484.1;"
        xml:space="preserve"
      >
        <g>
          <path
            class="st0"
            d="M225.4,34.9c0.8,1.5,2.2,2.3,3.8,2.3c0.7,0,1.3-0.2,1.9-0.5c2.1-1.1,2.9-3.6,1.8-5.7l-7.4-14.3
            c-1.1-2.1-3.6-2.9-5.7-1.8c-2.1,1.1-2.9,3.6-1.8,5.7L225.4,34.9z"
          ></path>
          <path
            class="st0"
            d="M187.5,89.5c-1.2,6.9-0.8,14.5,1.1,21.3c4.5,15.6,16.4,27.1,30.8,31.7l-111.3,26c-1.9,0.4-3.3,2.1-3.3,4.1
            l-18.6,3.9c-7.7,1.6-12.6,9.2-11,16.9l1.9,8.8c0.8,3.7,3,6.9,6.2,9c2.3,1.5,5,2.3,7.8,2.3c1,0,2-0.1,3-0.3h0.1l10.8-2.6v30.5
            c0,1.4,0.7,2.8,2,3.6c1.2,0.8,2.7,0.9,4.1,0.3c0.5-0.2,44.1-20.1,71.3-30.5l-3.8,40.2c-0.1,1.3,0.3,2.6,1.3,3.4
            c0.5,0.5,1.2,0.9,1.9,1.1v0.1c-15.7,10.4-125.8,83-154.5,89.3c-1.2,0.3-2.3,1.1-2.9,2.2s-0.6,2.5-0.1,3.7
            c0.6,1.3,15.1,32.9,49.2,64.9c20.1,18.8,42.8,33.7,67.5,44.5c30.9,13.4,64.9,20.2,101.3,20.2s70.4-6.8,101.3-20.2
            c24.7-10.7,47.4-25.7,67.5-44.5c34.2-32,48.6-63.5,49.2-64.9c0.5-1.2,0.5-2.5-0.1-3.7c-0.6-1.1-1.6-2-2.9-2.2
            c-28.7-6.4-138.8-78.9-154.5-89.3v-14.6l2.7-0.3c2.3-0.3,4-2.4,3.7-4.7l-5.9-51.8c11.5-1.4,23.3-2.2,35.2-2.2
            c24.5,0,41.1,3.2,41.2,3.2c1.2,0.2,2.5-0.1,3.5-0.9c1-0.8,1.5-2,1.5-3.3v-39.1l17.9-3.8c3.7-0.8,6.9-3,9-6.2s2.8-7,2-10.7l-1.9-8.8
            c-0.8-3.7-3-6.9-6.2-9s-7-2.8-10.7-2c-0.1,0-0.1,0-0.2,0l-10.3,2.6c-0.3-0.7-0.7-1.4-1.3-1.8c-1-0.8-2.3-1.1-3.6-0.8l-113.2,26.5
            c3.3-3.2,6.1-6.8,8.3-10.9c6.1-10.9,7.5-23.5,4.1-35.5c-1.9-6.8-5.6-13.4-10.3-18.7L237.4,6.9c-2.1-4.1-6.8-6.9-11.7-6.9
            c-1.1,0-2.2,0.2-3.3,0.5l-30.8,8.8c-5.7,1.6-9.8,7.5-9.3,13.4L187.5,89.5z M294.1,257.3h-94.9l94.9-11.6V257.3z M396.6,113.4
            c1.5-0.3,3,0,4.2,0.8c1.3,0.8,2.2,2.1,2.5,3.6l1.9,8.8c0.3,1.5,0,3-0.8,4.3s-2.1,2.2-3.6,2.5l-16.2,3.4v-20.4L396.6,113.4z
             M376.1,179.7c-4-0.6-10.2-1.3-18.1-1.9v-59l18.1-4.2V179.7z M251.7,67.3l-12-23.2c-1.1-2.1-3.6-2.9-5.7-1.8
            c-2.1,1.1-2.9,3.6-1.8,5.7l11.2,21.7l-47.8,13.6L190.7,22c-0.1-1.9,1.4-4.1,3.2-4.6l30.8-8.8c0.3-0.1,0.6-0.1,1-0.1
            c1.7,0,3.5,1,4.1,2.3l28.3,54.6L251.7,67.3z M196.9,108.5c-1.5-5.3-1.9-11-1-16.4l66.7-19c3.6,4.2,6.3,9.1,7.8,14.5
            c2.8,9.8,1.6,20.1-3.3,29.1c-5,8.9-13.1,15.4-22.9,18.2C223.8,140.6,202.6,128.8,196.9,108.5z M233.6,144.8c4.2,0,8.5-0.6,12.8-1.8
            c2.8-0.8,5.6-1.9,8.1-3.2c0,0.3,0,0.6,0,0.9c0,6.8-5.5,12.2-12.2,12.2c-5.2,0-9.9-3.4-11.6-8.3
            C231.7,144.7,232.7,144.8,233.6,144.8z M92.2,204.9c-1.5,0.3-3,0-4.3-0.8s-2.2-2.1-2.5-3.6l-1.9-8.8c-0.7-3.1,1.3-6.2,4.4-6.8
            l16.9-3.5v20.5L92.2,204.9z M113.4,176.1l14.2-3.3v55.5c-5.7,2.5-10.6,4.7-14.2,6.3V176.1z M136,224.5v-53.7l87.9-20.6
            c3.5,6.8,10.6,11.2,18.4,11.2c11.3,0,20.5-9.1,20.7-20.4l86.3-20.2v56.5c-3.5-0.1-7.2-0.2-11.1-0.2c-13.7,0-27.3,0.9-40.5,2.8
            c-2.3,0.3-3.9,2.4-3.6,4.7l3.1,27.2l-31.6,5.3c-2.3,0.4-3.9,2.6-3.5,4.9c0.3,2.1,2.1,3.6,4.2,3.6c0.2,0,0.5,0,0.7-0.1l31.2-5.2
            l1.8,16.1l-112.8,13.8l4-41.7c0.1-1.4-0.5-2.9-1.6-3.8c-0.8-0.6-1.7-0.9-2.6-0.9c-0.5,0-1,0.1-1.4,0.2
            C172.2,208.9,152.4,217.3,136,224.5z M405,413.2c-30.4,28.4-83.4,62.4-163,62.4c-79.4,0-132.3-33.8-162.7-62.1
            c-25.7-24-40.2-48.3-45.3-58c5.8-2,13.4-5.4,21.9-9.8c3.8,7.4,16.5,30.2,41.1,53.3c27.1,25.3,74.2,55.5,145,55.5
            c2.3,0,4.2-1.9,4.2-4.2s-1.9-4.2-4.2-4.2c-67.8,0-113-28.8-138.9-53c-23.7-22.1-36.2-44.5-39.6-51.3c4.2-2.2,8.6-4.7,13.2-7.2
            c2.7,5,8.8,15.5,18.4,27.2c0.8,1,2.1,1.6,3.3,1.6c0.9,0,1.9-0.3,2.7-1c1.8-1.5,2.1-4.2,0.6-6c-9.2-11.2-15.1-21.4-17.6-26
            c10.8-6.2,22.1-13,33.1-19.8c0.1,0,0.1,0,0.2,0h64c2.3,0,4.2-1.9,4.2-4.2s-1.9-4.2-4.2-4.2h-50.6c10-6.2,19.4-12.2,27.6-17.5
            c0.1,0,0.3,0,0.4,0h65.5c2.3,0,4.2-1.9,4.2-4.2s-1.9-4.2-4.2-4.2h-52.9c7.7-5,13.2-8.7,15.6-10.2h110c9.4,6.3,71.3,47.3,116.8,72.2
            h-82.5c-2.3,0-4.2,1.9-4.2,4.2s1.9,4.2,4.2,4.2h98.4c0.1,0,0.1,0,0.2,0c7.8,3.9,14.7,7,20.2,8.9C444.9,365.1,430.6,389.2,405,413.2
            z"
          ></path>
          <path
            class="st0"
            d="M152.8,398c-13-6.7-25.1-15.2-36-25.4c-1.7-1.6-4.4-1.5-6,0.2s-1.5,4.4,0.2,6c11.5,10.7,24.2,19.7,37.9,26.7
            c0.6,0.3,1.3,0.5,1.9,0.5c1.5,0,3-0.8,3.8-2.3C155.8,401.6,154.9,399.1,152.8,398z"
          ></path>
        </g>
      </svg>