 <svg
        version="1.1"
        id="Capa_1"
        xmlns="http://www.w3.org/2000/svg"
        xmlns:xlink="http://www.w3.org/1999/xlink"
        x="0px"
        y="0px"
        viewBox="0 0 512 512"
        style="enable-background:new 0 0 512 512;"
        xml:space="preserve"
      >
        <g>
          <path
            class="st0"
            d="M356.6,507.3c0.1-0.3,0.2-0.6,0.3-0.9c0-0.1,0-0.1,0.1-0.2c0.1-0.2,0.1-0.4,0.2-0.7c0-0.1,0-0.2,0.1-0.3
                c0-0.2,0.1-0.5,0.1-0.7c0-0.1,0-0.1,0-0.2c0-0.3,0-0.6,0-0.9c0,0,0-0.1,0-0.1c0-0.3-0.1-0.5-0.1-0.8c0-0.1,0-0.2,0-0.2
                c-0.1-0.2-0.1-0.5-0.2-0.7c0-0.1,0-0.1-0.1-0.2c-0.1-0.3-0.2-0.6-0.4-0.9c-0.3-0.6-14.1-29.6-7.3-67c6.2-34.4,8.8-62.2,7.6-86.7
                c0-0.3,0-0.7,0-1c-1.3-25-6.6-46.7-16.1-68.8c-15.6-36.5-11.1-84-8.2-115.4c0.3-3.1,0.6-6,0.8-8.7c0.1-0.8,0-1.6-0.1-2.3
                c4.2-3.4,7.1-8,8-13c2-11.2-1.8-22.8-10.2-31c-6.2-6.1-20.6-15.6-47.2-10.2c-24,4.8-32-8.3-36.2-24.4c5.2-6.9,14.3-23,5.8-41.4
                c-6-12.8-14.1-30.4-40-30.4l-1.6,0c-15.1,0-35.8,0-44.7,11c-8,10.1-12.8,39.5-9.2,57.3c1.9,9.2,5.8,15.5,11.6,18.7
                c4.3,2.4,8.3,4.1,11.8,5.7c2.5,1.1,4.6,2,6.4,3c0.4,0.3,0.8,0.5,1.2,0.7c0.3,0.1,0.5,0.2,0.8,0.4c5.2,3.1,7.2,6.6,7.6,15.6
                c0.2,5.5-12.7,17.8-29.1,33.4l-0.5,0.4c-12.5,11.9-16.1,33.5-10.7,64.1c1.7,9.4,3.9,17.6,5.4,22.8c0,0.1,0,0.1,0.1,0.2
                c0.3,4.2,1.7,8.1,4.1,11.2c0.9,1.3,1.8,2.1,3.2,2.7c0,0,0.1,0,0.1,0.1c0,0,0,0,0.1,0c4.5,2,9.3,2.8,14.1,2.8
                c11.9,0,23.8-5.4,31-12.9c0.1,14.7-8.4,36.7-17.2,55.3c-11.1,23.7-14.1,57.4-14.5,82c-3.7,2-6.8,3.9-9.3,5.5
                c-4.3,2.9-8.9,6.4-8.9,11.9c0,11.2,6.2,16.6,10.7,20.5c0.3,0.3,0.7,0.6,1,0.9c0.3,0.3,0.6,0.6,1,0.9c1.6,1.5,3.1,3.1,4,5
                c2,5.3,9.3,47.8,15.4,85.9c0.6,3.9,4,6.7,7.9,6.7h144c0,0,0,0,0,0c0.1,0,0.2,0,0.4,0c0.2,0,0.5,0,0.7,0c0.2,0,0.3-0.1,0.5-0.1
                c0.2,0,0.4-0.1,0.6-0.1c0.2,0,0.3-0.1,0.4-0.1c0.2-0.1,0.4-0.1,0.6-0.2c0.1-0.1,0.3-0.1,0.4-0.2c0.2-0.1,0.4-0.2,0.6-0.3
                c0.1,0,0.1-0.1,0.2-0.1c0.1-0.1,0.2-0.1,0.3-0.2c0.1-0.1,0.2-0.1,0.2-0.2c0.5-0.4,1-0.8,1.4-1.3c0,0,0.1-0.1,0.1-0.1
                c0.2-0.2,0.3-0.4,0.5-0.6c0,0,0-0.1,0.1-0.1c0,0,0-0.1,0-0.1c0.1-0.2,0.3-0.5,0.4-0.7C356.6,507.4,356.6,507.3,356.6,507.3z
                 M212.6,299.4c11.8-25.2,18-44.5,18.7-59c0.3-5.4-0.2-10.2-1.4-14.5c4.8-0.5,8.7-1.7,10.8-2.7c4-1.9,5.7-6.6,3.9-10.6
                c-1.9-4-6.6-5.7-10.6-3.9c-0.1,0.1-12,4.6-21.4-3.3c-0.1-0.1-0.3-0.2-0.4-0.3c-5.1-4.8-6.8-10.7-6.8-21.1v-6.7c0-4.4-3.6-8-8-8
                s-8,3.6-8,8v6.7c0,17.9,4.9,28.6,17.3,37.2c0,1.6-1.4,3.4-2.3,4.4c-5.2,5.8-16.1,10.1-24.9,8c-0.3-0.8-0.6-1.7-0.9-2.8
                c0-0.4,0.1-0.8,0.2-1.2c0.4-1.6,1.7-4.6,5.6-6.3c4.1-1.7,6-6.4,4.4-10.4c-1.7-4.1-6.4-6-10.4-4.4c-1.7,0.7-3.3,1.6-4.7,2.5
                c-0.6-3.3-1.2-6.7-1.7-10.2c-2.8-20.8-0.3-36.1,7-43.1l0.5-0.4c23-21.9,34.6-32.9,34-45.7c-0.2-3.8-0.6-7.1-1.4-10
                c6-0.4,10-2.4,11.9-3.3c4-2,5.6-6.8,3.6-10.7c-2-4-6.8-5.6-10.7-3.6c-2.4,1.2-8,3.9-19.9-1.5c-2.9-1.6-5.9-3-9-4.3
                c-3.4-1.5-6.9-3.1-10.7-5.1c-1-0.6-2.6-3-3.6-7.8c-3.1-15.4,2.2-39.4,6-44.2c4-5,23.7-5,32.1-5l1.6,0c14.9,0,19.2,7.6,25.5,21.1
                c6.5,14-5.3,26.6-5.7,27.1c-1.9,1.9-2.7,4.7-2.1,7.3c2,8.8,5.3,20.1,13.2,28.8c10.1,11.3,24.5,15.1,42.7,11.5
                c14.4-2.9,26-0.8,32.9,6c4.6,4.5,6.7,10.9,5.7,16.8c-0.4,2-3.7,5.3-7.6,5.7c-3.8,0.5-6.9-2.1-9.2-7.5c-1.8-4-6.5-5.9-10.5-4.1
                c-4,1.8-5.9,6.5-4.1,10.5c4.8,10.9,13.2,17.1,22.9,17.1c-0.1,1.2-0.2,2.4-0.3,3.6c-3.1,33.1-7.8,83,9.4,123.2
                c4.2,9.7,7.4,19.3,9.9,29.3c-4.3,0.9-10.8,2.8-21.6,6.6c-13.3,4.6-30.9,11.3-49.4,18.9c-21.4,8.7-46,19.3-65,28.4
                C201,337.7,205.4,314.7,212.6,299.4z M198.8,420.6c12.7-0.6,27.4-6.7,41.1-13.4c4-1.9,5.6-6.7,3.7-10.7c-1.9-4-6.7-5.6-10.7-3.7
                c-24,11.8-38.6,14.7-44.7,9c-0.5-0.4-1-0.9-1.5-1.3c-3-2.6-4.4-4-5-6c6.3-4.7,30-17.2,77.3-36.8c38.9-16.2,71.1-27.7,80-29.5
                c0.6,3.9,1.1,8,1.4,12.1c-19.9,5.1-42.3,17-63.7,28.8c-3.9,2.1-5.3,7-3.1,10.9c1.5,2.6,4.2,4.1,7,4.1c1.3,0,2.6-0.3,3.9-1
                c18.4-10.2,39.1-21.3,56.6-26.4c0.2,21.1-2.4,45.1-7.6,74c-0.6,3.3-1,6.6-1.4,9.8c-4.9-18.9-6.8-33-6.8-33.3
                c-0.5-4.4-4.6-7.5-8.9-6.9c-4.4,0.5-7.5,4.5-6.9,8.9c0.3,2.1,6.2,47.9,26.2,87h-97c0-0.2,0-0.5,0-0.7c-0.2-17.5-0.6-46.8,5.9-59.7
                c2-4,0.4-8.8-3.6-10.7s-8.8-0.4-10.7,3.6c-8.2,16.4-7.8,45.7-7.6,67.1c0,0.2,0,0.3,0,0.5h-10.4
                C208.6,473.9,202.6,437.2,198.8,420.6z"
          ></path>
          <path
            class="st0"
            d="M279.4,217.6c11.1,0,21.4-4.4,27.9-12.6c2.8-3.4,2.2-8.5-1.2-11.2c-3.4-2.8-8.5-2.2-11.2,1.2
                c-4.7,5.9-14.1,8.1-23.2,5.4c-4.2-1.2-8.7,1.2-9.9,5.5c-1.2,4.2,1.2,8.7,5.5,9.9C271.2,217,275.3,217.6,279.4,217.6z"
          ></path>
        </g>
      </svg>